<mxfile host="app.diagrams.net" modified="2022-06-30T11:04:30.140Z" agent="5.0 (Macintosh; Intel Mac OS X 10_15_7) AppleWebKit/537.36 (KHTML, like Gecko) Chrome/103.0.0.0 Safari/537.36" etag="vYiAbMkAXuK3ietGJRTV" version="20.0.3" type="github">
  <diagram id="e0AHSDDCq2gPhYdt66as" name="Page-1">
    <mxGraphModel dx="1204" dy="539" grid="1" gridSize="10" guides="1" tooltips="1" connect="1" arrows="1" fold="1" page="1" pageScale="1" pageWidth="827" pageHeight="1169" math="0" shadow="0">
      <root>
        <mxCell id="0" />
        <mxCell id="1" parent="0" />
        <mxCell id="LwQagKC2jVfEo59z9Ib3-13" value="" style="rounded=1;whiteSpace=wrap;html=1;fontSize=12;strokeColor=#FF9933;dashed=1;fillColor=none;" vertex="1" parent="1">
          <mxGeometry x="69" y="166.5" width="118" height="183.5" as="geometry" />
        </mxCell>
        <mxCell id="LwQagKC2jVfEo59z9Ib3-1" value="Amazon Cloudfront" style="sketch=0;outlineConnect=0;fontColor=#232F3E;gradientColor=none;strokeColor=#ffffff;fillColor=#232F3E;dashed=0;verticalLabelPosition=middle;verticalAlign=bottom;align=center;html=1;whiteSpace=wrap;fontSize=10;fontStyle=1;spacing=3;shape=mxgraph.aws4.productIcon;prIcon=mxgraph.aws4.cloudfront;" vertex="1" parent="1">
          <mxGeometry x="240" y="12" width="40" height="70" as="geometry" />
        </mxCell>
        <mxCell id="LwQagKC2jVfEo59z9Ib3-2" value="CDN" style="text;html=1;align=center;verticalAlign=middle;resizable=0;points=[];autosize=1;strokeColor=none;fillColor=none;" vertex="1" parent="1">
          <mxGeometry x="270" y="10" width="50" height="30" as="geometry" />
        </mxCell>
        <mxCell id="LwQagKC2jVfEo59z9Ib3-3" value="&lt;span style=&quot;font-size: 10px;&quot;&gt;S3&lt;/span&gt;" style="sketch=0;points=[[0,0,0],[0.25,0,0],[0.5,0,0],[0.75,0,0],[1,0,0],[0,1,0],[0.25,1,0],[0.5,1,0],[0.75,1,0],[1,1,0],[0,0.25,0],[0,0.5,0],[0,0.75,0],[1,0.25,0],[1,0.5,0],[1,0.75,0]];outlineConnect=0;fontColor=#232F3E;gradientColor=#60A337;gradientDirection=north;fillColor=#277116;strokeColor=#ffffff;dashed=0;verticalLabelPosition=bottom;verticalAlign=top;align=center;html=1;fontSize=12;fontStyle=0;shape=mxgraph.aws4.resourceIcon;resIcon=mxgraph.aws4.s3;" vertex="1" parent="1">
          <mxGeometry x="73.5" y="200" width="40" height="60" as="geometry" />
        </mxCell>
        <mxCell id="LwQagKC2jVfEo59z9Ib3-4" value="&lt;font style=&quot;font-size: 10px;&quot;&gt;server&lt;/font&gt;" style="sketch=0;pointerEvents=1;shadow=0;dashed=0;html=1;strokeColor=none;labelPosition=center;verticalLabelPosition=bottom;verticalAlign=top;align=center;fillColor=#000033;shape=mxgraph.mscae.enterprise.server_generic;fontSize=10;fontColor=#000033;" vertex="1" parent="1">
          <mxGeometry x="141" y="200" width="40" height="60" as="geometry" />
        </mxCell>
        <mxCell id="LwQagKC2jVfEo59z9Ib3-11" value="Amazon &lt;br&gt;CloudFront" style="outlineConnect=0;dashed=0;verticalLabelPosition=bottom;verticalAlign=top;align=center;html=1;shape=mxgraph.aws3.cloudfront;fillColor=#F58536;gradientColor=none;fontSize=12;" vertex="1" parent="1">
          <mxGeometry x="264" y="201" width="50" height="64" as="geometry" />
        </mxCell>
        <mxCell id="LwQagKC2jVfEo59z9Ib3-12" value="Static and dynamic&lt;br&gt;content&lt;br&gt;&lt;b&gt;.html/.css/.js&lt;/b&gt;" style="text;html=1;align=center;verticalAlign=middle;resizable=0;points=[];autosize=1;strokeColor=none;fillColor=none;fontSize=12;" vertex="1" parent="1">
          <mxGeometry x="72.5" y="279" width="120" height="60" as="geometry" />
        </mxCell>
        <mxCell id="LwQagKC2jVfEo59z9Ib3-14" value="CloudFront&lt;br&gt;distriution" style="text;html=1;align=center;verticalAlign=middle;resizable=0;points=[];autosize=1;strokeColor=none;fillColor=none;fontSize=12;" vertex="1" parent="1">
          <mxGeometry x="249" y="303" width="80" height="40" as="geometry" />
        </mxCell>
        <mxCell id="LwQagKC2jVfEo59z9Ib3-15" value="" style="strokeWidth=1;html=1;shape=mxgraph.flowchart.annotation_1;align=left;pointerEvents=1;fontColor=#000033;fillColor=none;strokeColor=#3399FF;" vertex="1" parent="1">
          <mxGeometry x="259" y="308.5" width="12" height="29" as="geometry" />
        </mxCell>
        <mxCell id="LwQagKC2jVfEo59z9Ib3-16" value="" style="strokeWidth=1;html=1;shape=mxgraph.flowchart.annotation_1;align=left;pointerEvents=1;fontColor=#000033;fillColor=none;direction=west;strokeColor=#3399FF;" vertex="1" parent="1">
          <mxGeometry x="308" y="308.5" width="12" height="29" as="geometry" />
        </mxCell>
        <mxCell id="LwQagKC2jVfEo59z9Ib3-17" value="" style="endArrow=none;html=1;rounded=0;fontSize=12;" edge="1" parent="1">
          <mxGeometry width="50" height="50" relative="1" as="geometry">
            <mxPoint x="190" y="232.5" as="sourcePoint" />
            <mxPoint x="260" y="232.5" as="targetPoint" />
          </mxGeometry>
        </mxCell>
        <mxCell id="LwQagKC2jVfEo59z9Ib3-19" value="" style="html=1;verticalLabelPosition=bottom;align=center;labelBackgroundColor=#ffffff;verticalAlign=top;strokeWidth=2;strokeColor=#0080F0;shadow=0;dashed=0;shape=mxgraph.ios7.icons.cloud;fontSize=12;fillColor=none;" vertex="1" parent="1">
          <mxGeometry x="390" y="5" width="400" height="367" as="geometry" />
        </mxCell>
        <mxCell id="LwQagKC2jVfEo59z9Ib3-18" value="user" style="sketch=0;aspect=fixed;pointerEvents=1;shadow=0;dashed=0;html=1;strokeColor=none;labelPosition=center;verticalLabelPosition=bottom;verticalAlign=top;align=center;fillColor=#000033;shape=mxgraph.mscae.enterprise.client_application;fontSize=12;" vertex="1" parent="1">
          <mxGeometry x="51" y="486" width="50" height="32" as="geometry" />
        </mxCell>
        <mxCell id="LwQagKC2jVfEo59z9Ib3-20" value="" style="sketch=0;pointerEvents=1;shadow=0;dashed=0;html=1;strokeColor=none;labelPosition=center;verticalLabelPosition=bottom;verticalAlign=top;align=center;fillColor=#000033;shape=mxgraph.mscae.enterprise.server_generic;fontSize=10;fontColor=#000033;" vertex="1" parent="1">
          <mxGeometry x="600" y="74" width="40" height="60" as="geometry" />
        </mxCell>
        <mxCell id="LwQagKC2jVfEo59z9Ib3-21" value="edge server" style="text;html=1;align=center;verticalAlign=middle;resizable=0;points=[];autosize=1;strokeColor=none;fillColor=none;fontSize=12;" vertex="1" parent="1">
          <mxGeometry x="577" y="47" width="90" height="30" as="geometry" />
        </mxCell>
        <mxCell id="LwQagKC2jVfEo59z9Ib3-23" value="edge location" style="text;html=1;align=center;verticalAlign=middle;resizable=0;points=[];autosize=1;strokeColor=none;fillColor=none;fontSize=12;" vertex="1" parent="1">
          <mxGeometry x="581" y="129" width="90" height="30" as="geometry" />
        </mxCell>
        <mxCell id="LwQagKC2jVfEo59z9Ib3-24" value="" style="sketch=0;pointerEvents=1;shadow=0;dashed=0;html=1;strokeColor=none;labelPosition=center;verticalLabelPosition=bottom;verticalAlign=top;align=center;fillColor=#000033;shape=mxgraph.mscae.enterprise.server_generic;fontSize=10;fontColor=#000033;" vertex="1" parent="1">
          <mxGeometry x="663" y="201" width="40" height="60" as="geometry" />
        </mxCell>
        <mxCell id="LwQagKC2jVfEo59z9Ib3-25" value="edge server" style="text;html=1;align=center;verticalAlign=middle;resizable=0;points=[];autosize=1;strokeColor=none;fillColor=none;fontSize=12;" vertex="1" parent="1">
          <mxGeometry x="640" y="174" width="90" height="30" as="geometry" />
        </mxCell>
        <mxCell id="LwQagKC2jVfEo59z9Ib3-26" value="edge location" style="text;html=1;align=center;verticalAlign=middle;resizable=0;points=[];autosize=1;strokeColor=none;fillColor=none;fontSize=12;" vertex="1" parent="1">
          <mxGeometry x="644" y="256" width="90" height="30" as="geometry" />
        </mxCell>
        <mxCell id="LwQagKC2jVfEo59z9Ib3-27" value="" style="sketch=0;pointerEvents=1;shadow=0;dashed=0;html=1;strokeColor=none;labelPosition=center;verticalLabelPosition=bottom;verticalAlign=top;align=center;fillColor=#000033;shape=mxgraph.mscae.enterprise.server_generic;fontSize=10;fontColor=#000033;" vertex="1" parent="1">
          <mxGeometry x="533" y="287" width="40" height="60" as="geometry" />
        </mxCell>
        <mxCell id="LwQagKC2jVfEo59z9Ib3-28" value="edge server" style="text;html=1;align=center;verticalAlign=middle;resizable=0;points=[];autosize=1;strokeColor=none;fillColor=none;fontSize=12;" vertex="1" parent="1">
          <mxGeometry x="510" y="260" width="90" height="30" as="geometry" />
        </mxCell>
        <mxCell id="LwQagKC2jVfEo59z9Ib3-29" value="edge location" style="text;html=1;align=center;verticalAlign=middle;resizable=0;points=[];autosize=1;strokeColor=none;fillColor=none;fontSize=12;" vertex="1" parent="1">
          <mxGeometry x="514" y="342" width="90" height="30" as="geometry" />
        </mxCell>
        <mxCell id="LwQagKC2jVfEo59z9Ib3-30" value="(1)" style="text;html=1;align=center;verticalAlign=middle;resizable=0;points=[];autosize=1;strokeColor=none;fillColor=none;fontSize=10;" vertex="1" parent="1">
          <mxGeometry x="632" y="79" width="40" height="30" as="geometry" />
        </mxCell>
        <mxCell id="LwQagKC2jVfEo59z9Ib3-31" value="(2)" style="text;html=1;align=center;verticalAlign=middle;resizable=0;points=[];autosize=1;strokeColor=none;fillColor=none;fontSize=10;" vertex="1" parent="1">
          <mxGeometry x="696" y="209" width="40" height="30" as="geometry" />
        </mxCell>
        <mxCell id="LwQagKC2jVfEo59z9Ib3-33" value="(3)" style="text;html=1;align=center;verticalAlign=middle;resizable=0;points=[];autosize=1;strokeColor=none;fillColor=none;fontSize=10;" vertex="1" parent="1">
          <mxGeometry x="564" y="295" width="40" height="30" as="geometry" />
        </mxCell>
        <mxCell id="LwQagKC2jVfEo59z9Ib3-35" value="" style="endArrow=none;dashed=1;html=1;shadow=0;sketch=0;fontSize=10;strokeColor=#000033;jumpStyle=none;rounded=0;startArrow=openThin;startFill=0;" edge="1" parent="1">
          <mxGeometry width="50" height="50" relative="1" as="geometry">
            <mxPoint x="585" y="113.23529411764707" as="sourcePoint" />
            <mxPoint x="330" y="230" as="targetPoint" />
          </mxGeometry>
        </mxCell>
        <mxCell id="LwQagKC2jVfEo59z9Ib3-36" value="" style="endArrow=none;dashed=1;html=1;shadow=0;sketch=0;fontSize=10;strokeColor=#000000;jumpStyle=none;rounded=0;startArrow=openThin;startFill=0;exitX=0;exitY=0.5;exitDx=0;exitDy=0;exitPerimeter=0;" edge="1" parent="1">
          <mxGeometry width="50" height="50" relative="1" as="geometry">
            <mxPoint x="658" y="231" as="sourcePoint" />
            <mxPoint x="329" y="241" as="targetPoint" />
          </mxGeometry>
        </mxCell>
        <mxCell id="LwQagKC2jVfEo59z9Ib3-37" value="" style="endArrow=none;dashed=1;html=1;shadow=0;sketch=0;fontSize=10;strokeColor=#000000;jumpStyle=none;rounded=0;startArrow=openThin;startFill=0;" edge="1" parent="1">
          <mxGeometry width="50" height="50" relative="1" as="geometry">
            <mxPoint x="520" y="325" as="sourcePoint" />
            <mxPoint x="320" y="255" as="targetPoint" />
          </mxGeometry>
        </mxCell>
        <mxCell id="LwQagKC2jVfEo59z9Ib3-38" value="Assigned by &lt;br&gt;CloudFront" style="sketch=0;aspect=fixed;html=1;points=[];align=center;image;fontSize=12;image=img/lib/mscae/DNS.svg;dashed=1;strokeColor=#FF9933;fillColor=none;" vertex="1" parent="1">
          <mxGeometry x="264" y="428" width="48" height="48" as="geometry" />
        </mxCell>
        <mxCell id="LwQagKC2jVfEo59z9Ib3-39" value="" style="endArrow=classic;html=1;rounded=0;shadow=0;sketch=0;fontSize=10;strokeColor=#000033;jumpStyle=none;" edge="1" parent="1">
          <mxGeometry width="50" height="50" relative="1" as="geometry">
            <mxPoint x="116.5" y="490" as="sourcePoint" />
            <mxPoint x="260" y="460" as="targetPoint" />
          </mxGeometry>
        </mxCell>
        <mxCell id="LwQagKC2jVfEo59z9Ib3-40" value="&lt;font style=&quot;font-size: 12px;&quot;&gt;request&lt;/font&gt;" style="text;html=1;align=center;verticalAlign=middle;resizable=0;points=[];autosize=1;strokeColor=none;fillColor=none;fontSize=10;" vertex="1" parent="1">
          <mxGeometry x="138.5" y="446" width="60" height="30" as="geometry" />
        </mxCell>
        <mxCell id="LwQagKC2jVfEo59z9Ib3-42" value="" style="curved=1;endArrow=classic;html=1;rounded=0;shadow=0;sketch=0;fontSize=12;strokeColor=#000033;jumpStyle=none;entryX=0.133;entryY=1;entryDx=0;entryDy=0;entryPerimeter=0;" edge="1" parent="1">
          <mxGeometry width="50" height="50" relative="1" as="geometry">
            <mxPoint x="320" y="450" as="sourcePoint" />
            <mxPoint x="443.20000000000005" y="374" as="targetPoint" />
            <Array as="points">
              <mxPoint x="364" y="432" />
              <mxPoint x="360" y="410" />
            </Array>
          </mxGeometry>
        </mxCell>
        <mxCell id="LwQagKC2jVfEo59z9Ib3-43" value="" style="curved=1;endArrow=classic;html=1;rounded=0;shadow=0;sketch=0;fontSize=12;strokeColor=#000033;jumpStyle=none;" edge="1" parent="1">
          <mxGeometry width="50" height="50" relative="1" as="geometry">
            <mxPoint x="700" y="380" as="sourcePoint" />
            <mxPoint x="120" y="514" as="targetPoint" />
            <Array as="points">
              <mxPoint x="604" y="515" />
              <mxPoint x="550" y="574" />
            </Array>
          </mxGeometry>
        </mxCell>
        <mxCell id="LwQagKC2jVfEo59z9Ib3-44" value="response" style="text;html=1;align=center;verticalAlign=middle;resizable=0;points=[];autosize=1;strokeColor=none;fillColor=none;fontSize=12;" vertex="1" parent="1">
          <mxGeometry x="325" y="502" width="70" height="30" as="geometry" />
        </mxCell>
        <mxCell id="LwQagKC2jVfEo59z9Ib3-45" value="&lt;b&gt;tell to CloudFront which origin &lt;br&gt;servers to get&amp;nbsp; your fies from when &lt;br&gt;user request the files&lt;/b&gt;" style="text;html=1;align=left;verticalAlign=middle;resizable=0;points=[];autosize=1;strokeColor=none;fillColor=none;fontSize=12;" vertex="1" parent="1">
          <mxGeometry x="209" y="337.5" width="220" height="60" as="geometry" />
        </mxCell>
      </root>
    </mxGraphModel>
  </diagram>
</mxfile>
